<svg width="100" height="100" viewBox="0 0 100 100" fill="none" xmlns="http://www.w3.org/2000/svg">
<path d="M8.33334 20.8104C8.33334 18.6027 9.21131 16.4854 10.7741 14.9243C12.3369 13.3633 14.4565 12.4863 16.6667 12.4863H83.3333C85.5435 12.4863 87.6631 13.3633 89.2259 14.9243C90.7887 16.4854 91.6667 18.6027 91.6667 20.8104V66.5933C91.6667 68.801 90.7887 70.9183 89.2259 72.4794C87.6631 74.0405 85.5435 74.9175 83.3333 74.9175H54.1667V83.2417H66.6667C67.7717 83.2417 68.8315 83.6802 69.6129 84.4607C70.3943 85.2413 70.8333 86.2999 70.8333 87.4037C70.8333 88.5076 70.3943 89.5662 69.6129 90.3468C68.8315 91.1273 67.7717 91.5658 66.6667 91.5658H33.3333C32.2283 91.5658 31.1685 91.1273 30.3871 90.3468C29.6057 89.5662 29.1667 88.5076 29.1667 87.4037C29.1667 86.2999 29.6057 85.2413 30.3871 84.4607C31.1685 83.6802 32.2283 83.2417 33.3333 83.2417H45.8333V74.9175H16.6667C14.4565 74.9175 12.3369 74.0405 10.7741 72.4794C9.21131 70.9183 8.33334 68.801 8.33334 66.5933V20.8104ZM83.3333 66.5933V20.8104H16.6667V66.5933H83.3333Z" fill="white"/>
</svg>
